 <svg   xmlns:mydata="http://www.w3.org/2000/svg" 
              xmlns="http://www.w3.org/2000/svg" xmlns:xlink="http://www.w3.org/1999/xlink"
              x="0px" y="0px" viewBox="0 0 512 512" style="enable-background:new 0 0 512 512;" xml:space="preserve"
             >
              <g fill="#ffffff" fill-rule="evenodd" stroke="none" stroke-width="1" stroke-linecap="butt"
                stroke-linejoin="miter" stroke-miterlimit="10" stroke-dasharray="" stroke-dashoffset="0"
                font-family="none" font-weight="none" font-size="none" text-anchor="none"
                style="mix-blend-mode: normal">
                <g
                  data-paper-data="{&quot;isGlobalGroup&quot;:true,&quot;bounds&quot;:{&quot;x&quot;:146.00012878750064,&quot;y&quot;:106,&quot;width&quot;:257.99974242499866,&quot;height&quot;:258}}">
                  <g data-paper-data="{&quot;fillRule&quot;:&quot;nonzero&quot;,&quot;fillRuleOriginal&quot;:&quot;nonzero&quot;,&quot;isIcon&quot;:true,&quot;iconStyle&quot;:&quot;standalone&quot;,&quot;selectedEffects&quot;:{&quot;container&quot;:&quot;shield_simple_outline3&quot;,&quot;transformation&quot;:&quot;rotate2;translate19&quot;,&quot;pattern&quot;:&quot;&quot;},&quot;bounds&quot;:{&quot;x&quot;:223.4397692755106,&quot;y&quot;:176.81166075974642,&quot;width&quot;:104.69637897766344,&quot;height&quot;:130.5046672989567},&quot;widthRatioIconToContainer&quot;:0.14878225268372197,&quot;heightRatioIconToContainer&quot;:0.8048657633495987,&quot;relativeBoundsIconToContainer&quot;:{&quot;top&quot;:-0.010642575480697972,&quot;left&quot;:9.964165999987275e-7},&quot;iconType&quot;:&quot;initial&quot;,&quot;initialText&quot;:&quot;1&quot;,&quot;rawInitialId&quot;:198,&quot;blockLetter&quot;:&quot;V&quot;,&quot;blockLetterId&quot;:0,&quot;suitableAsStandaloneIcon&quot;:true}"
                    id="element-id-28867">
                  
                  </g>
                  <g data-paper-data="{&quot;isContainerElementsWrapper&quot;:true}" id="element-id-92005">
                    <path
                      d="M183.78338,143.78325c-11.90054,11.90059 -21.11491,25.56801 -27.64312,41.00225c-6.76008,15.98253 -10.14013,32.72073 -10.14013,50.21459c0,17.49415 3.38004,34.23235 10.14013,50.21459c6.5281,15.43389 15.74247,29.1014 27.64312,41.00251c11.90082,11.90054 25.56823,21.11485 41.00222,27.64295c15.98283,6.75991 32.72104,10.13987 50.21462,10.13987c17.49398,0 34.23209,-3.37996 50.21433,-10.13987c15.43447,-6.5281 29.10197,-15.74241 41.00251,-27.64295c11.90054,-11.90111 21.11485,-25.56861 27.64295,-41.00251c6.75991,-15.98224 10.13987,-32.72044 10.13987,-50.21459c0,-17.49398 -3.37996,-34.23215 -10.13987,-50.2145c-6.52867,-15.43435 -15.74298,-29.1018 -27.64295,-41.00233c-11.90054,-11.90042 -25.56804,-21.1148 -41.00251,-27.64312c-15.9823,-6.76008 -32.72041,-10.14013 -50.21433,-10.14013c-17.49386,0 -34.23206,3.38004 -50.2146,10.14013c-15.43406,6.52804 -29.10147,15.74241 -41.00224,27.64312zM148.45259,235.00009c0,-17.16228 3.31548,-33.582 9.94643,-49.25916c6.40383,-15.14043 15.44334,-28.54827 27.11853,-40.22351c11.67513,-11.67507 25.08295,-20.71458 40.22345,-27.11853c15.6772,-6.63095 32.09694,-9.94643 49.25922,-9.94643c17.16239,0 33.58226,3.31548 49.25959,9.94643c15.14026,6.40383 28.5479,15.44334 40.22291,27.11853c11.67502,11.6753 20.71475,25.08311 27.11921,40.22343c6.63055,15.6775 9.94583,32.09725 9.94583,49.25924c0,17.16274 -3.31528,33.58269 -9.94583,49.25985c-6.40446,15.13969 -15.4442,28.54732 -27.11921,40.22291c-11.67502,11.67502 -25.08265,20.71475 -40.22291,27.11921c-15.67762,6.63055 -32.09748,9.94583 -49.25959,9.94583c-17.16245,0 -33.58219,-3.31528 -49.2592,-9.94583c-15.14063,-6.40446 -28.54845,-15.4442 -40.22347,-27.11921c-11.67513,-11.67559 -20.71464,-25.08323 -27.11853,-40.22291c-6.63095,-15.67716 -9.94643,-32.09711 -9.94643,-49.25985z"
                      data-paper-data="{&quot;isAdditionalOutlinePath&quot;:true}" id="element-id-89699"></path>
                    <path
                      d="M152.37657,235.00009c0,-67.72314 54.90048,-122.62364 122.62364,-122.62364c67.72342,0 122.62382,54.90051 122.62382,122.62364c0,67.72282 -54.90039,122.62407 -122.62382,122.62407c-67.72316,0 -122.62364,-54.90125 -122.62364,-122.62407zM275.57538,132.65326l3.06626,-0.01477l-0.00953,-1.98736l-8.27606,0.03984l0.00953,1.98736l3.06626,-0.01477l0.04173,8.65941l2.14354,-0.01039zM285.77441,141.84543l-2.11813,-0.2186l1.09315,-10.59063l2.11813,0.21868zM265.59658,141.69371l-1.50372,0.2149l-4.94905,-5.32974l0.84562,5.91633l-2.26254,0.32334l-1.50647,-10.53971l1.46148,-0.20889l5.00932,5.4502l-0.86365,-6.0428l2.26254,-0.32334zM299.59107,143.70426c0.42277,-0.19516 0.87318,-0.49085 1.35132,-0.88692l-1.20554,-1.74387c-0.30617,0.2799 -0.60187,0.48209 -0.88735,0.6065c-0.28539,0.12449 -0.55516,0.20151 -0.80939,0.23122c-0.25423,0.02962 -0.49128,0.02679 -0.71134,-0.00859c-0.22005,-0.03537 -0.4177,-0.07298 -0.59311,-0.11282c-0.43376,-0.09839 -0.82046,-0.27595 -1.16012,-0.53258c-0.33966,-0.25663 -0.61724,-0.5622 -0.83274,-0.9168c-0.2155,-0.35459 -0.36232,-0.74456 -0.44045,-1.16991c-0.07822,-0.42534 -0.068,-0.85489 0.03039,-1.28865c0.09848,-0.43376 0.27475,-0.82561 0.5288,-1.17557c0.25414,-0.34987 0.5549,-0.63827 0.90237,-0.86511c0.34747,-0.22684 0.7298,-0.38267 1.1469,-0.46758c0.41719,-0.08483 0.84261,-0.07805 1.27646,0.02043c0.17532,0.03975 0.37932,0.10303 0.61191,0.18983c0.23268,0.08672 0.46252,0.20683 0.68979,0.36026c0.22718,0.15351 0.44088,0.34515 0.64102,0.57499c0.20014,0.22976 0.35545,0.50759 0.46587,0.83351l1.80491,-1.08971c-0.17129,-0.48527 -0.40199,-0.90151 -0.69193,-1.24881c-0.28994,-0.34721 -0.60504,-0.63707 -0.9453,-0.86957c-0.34034,-0.2325 -0.69339,-0.41942 -1.05915,-0.56065c-0.36584,-0.14124 -0.71031,-0.24847 -1.03331,-0.3218c-0.71992,-0.16339 -1.42791,-0.1761 -2.12396,-0.03804c-0.69605,0.13797 -1.3339,0.39349 -1.91352,0.76663c-0.57963,0.37305 -1.08164,0.85352 -1.50621,1.44139c-0.42454,0.58779 -0.71955,1.24623 -0.88503,1.97534c-0.16754,0.73832 -0.1862,1.46194 -0.05598,2.17084c0.13025,0.70885 0.37632,1.35673 0.73804,1.9434c0.36181,0.58676 0.82682,1.09263 1.39511,1.51763c0.56838,0.42491 1.21241,0.71906 1.93233,0.88245c0.33221,0.07544 0.67505,0.13629 1.0285,0.18253c0.35348,0.04619 0.72121,0.03992 1.10337,-0.01889c0.38207,-0.0589 0.78457,-0.18588 1.20734,-0.38113zM246.78201,145.55657l5.78196,-1.62083l-0.53258,-1.89996l-3.73157,1.04601l-0.66291,-2.36471l3.29421,-0.92341l-0.48278,-1.72232l-3.29421,0.92341l-0.66291,-2.36471l3.73166,-1.04601l-0.53258,-1.89996l-5.78196,1.62075zM241.4066,147.43274l-1.95534,0.84321l-1.74825,-4.05397l-3.03724,1.30977l1.74825,4.05397l-1.95534,0.84321l-4.21599,-9.77652l1.95534,-0.84321l1.75383,4.06702l3.03724,-1.30977l-1.75383,-4.06702l1.95525,-0.84321zM321.75446,145.32406c-0.19576,0.40972 -0.4499,0.7601 -0.76242,1.05125c-0.31252,0.29106 -0.6551,0.50751 -1.02687,0.64935c-0.37263,0.14184 -0.75899,0.20881 -1.15909,0.20091c-0.4001,-0.00798 -0.78303,-0.09977 -1.1505,-0.27552l-1.74121,-0.8336l-1.77813,3.7132l-1.88201,-0.901l4.59771,-9.60325l3.62322,1.73468c0.36747,0.17575 0.67742,0.42122 0.92985,0.73649c0.25328,0.31519 0.43959,0.66652 0.55808,1.05391c0.11848,0.38739 0.16313,0.7941 0.13222,1.22005c-0.03091,0.42594 -0.14424,0.84373 -0.34086,1.25353zM319.88532,144.42907c0.05753,-0.11943 0.0953,-0.25345 0.11419,-0.4019c0.01803,-0.14853 0.01545,-0.29132 -0.00773,-0.42852c-0.02318,-0.13712 -0.06611,-0.26238 -0.12707,-0.37563c-0.06096,-0.11316 -0.14768,-0.19636 -0.25843,-0.2495l-1.77984,-0.85206l-1.0054,2.09992l1.77984,0.85206c0.11162,0.05306 0.23096,0.07118 0.35975,0.05409c0.12879,-0.017 0.25099,-0.05824 0.36662,-0.12372c0.11505,-0.06551 0.22237,-0.14776 0.32283,-0.24684c0.0996,-0.09908 0.17773,-0.20838 0.23525,-0.32789zM223.05912,146.80289l2.62472,-1.58529l-1.02748,-1.7012l-7.08432,4.27875l1.02748,1.7012l2.62472,-1.58529l4.47688,7.41241l1.83487,-1.10817zM327.35585,157.27889l1.93954,1.26203l0.72722,-5.04795c0.54606,-0.0061 1.05434,-0.14098 1.5257,-0.40474c0.4705,-0.26384 0.86116,-0.63372 1.17025,-1.10963c0.24813,-0.3807 0.41298,-0.78157 0.49454,-1.20245c0.08242,-0.42088 0.09187,-0.82982 0.02833,-1.22683c-0.06354,-0.39701 -0.20348,-0.76749 -0.41985,-1.11161c-0.21636,-0.34412 -0.4954,-0.62711 -0.83626,-0.84905l-3.35534,-2.18355l-5.80746,8.92369l1.74893,1.13822l2.2452,-3.45047l1.19,0.77427zM331.16024,150.45633c-0.03348,0.14742 -0.08929,0.28059 -0.16657,0.39958c-0.07212,0.11101 -0.16742,0.20984 -0.28591,0.29647c-0.11848,0.08663 -0.24298,0.15231 -0.37434,0.19713c-0.1305,0.04473 -0.26444,0.06457 -0.40268,0.05959c-0.13823,-0.00507 -0.25843,-0.04113 -0.36146,-0.10827l-1.60641,-1.04524l1.27757,-1.96324l1.60641,1.04533c0.10303,0.06706 0.1846,0.16262 0.24555,0.28668c0.0601,0.12398 0.0953,0.2568 0.10475,0.39847c0.00944,0.14167 -0.00258,0.28617 -0.03692,0.4335zM217.0689,156.90498c0.28646,0.35262 0.47731,0.76757 0.57255,1.24503c0.09525,0.47746 0.10007,0.96737 0.01444,1.46981c-0.08562,0.50244 -0.26478,0.99862 -0.53746,1.48835c-0.27269,0.48985 -0.63306,0.9168 -1.08112,1.28083c-0.44071,0.35803 -0.92686,0.6189 -1.45846,0.7826c-0.5316,0.16365 -1.05574,0.23886 -1.57242,0.22581c-0.51668,-0.01314 -0.99894,-0.11514 -1.44677,-0.30608c-0.44778,-0.19101 -0.81491,-0.46278 -1.10139,-0.81531l-4.52954,-5.57495l1.68574,-1.36961l4.52953,5.57495c0.10742,0.13222 0.25454,0.23826 0.44138,0.31811c0.18684,0.07993 0.39629,0.12003 0.62835,0.12055c0.23206,0.00046 0.47709,-0.04316 0.73508,-0.13085c0.25799,-0.08769 0.51553,-0.23597 0.77261,-0.44483c0.25708,-0.20889 0.45677,-0.43204 0.59909,-0.66961c0.14232,-0.23757 0.23517,-0.46853 0.27855,-0.69279c0.04338,-0.22418 0.04511,-0.43599 0.00518,-0.63518c-0.03994,-0.19928 -0.11362,-0.36498 -0.22103,-0.49721l-4.52955,-5.57495l1.68573,-1.36961zM344.3455,164.21487c-0.49884,0.56933 -1.07495,1.00799 -1.72919,1.31592c-0.65367,0.30792 -1.33281,0.48338 -2.03742,0.5264c-0.7049,0.04301 -1.40121,-0.04863 -2.08979,-0.27491c-0.68944,-0.22629 -1.31449,-0.58584 -1.87686,-1.0787c-0.56953,-0.49901 -1.00969,-1.0736 -1.3205,-1.72378c-0.31167,-0.65021 -0.49197,-1.32746 -0.54177,-2.03167c-0.04894,-0.7043 0.0352,-1.40061 0.255,-2.0891c0.2198,-0.68841 0.57926,-1.3173 1.07838,-1.88665c0.49283,-0.56229 1.06722,-0.99913 1.72404,-1.31063c0.65682,-0.31141 1.33681,-0.4869 2.03828,-0.5264c0.70146,-0.03941 1.39606,0.05066 2.08464,0.27028c0.68858,0.21963 1.31707,0.57894 1.88717,1.07795c0.56151,0.49283 0.99853,1.06765 1.3102,1.72455c0.31138,0.65687 0.4934,1.33564 0.54606,2.0363c0.05323,0.70072 -0.03148,1.39709 -0.25414,2.0891c-0.22323,0.69202 -0.58126,1.31913 -1.07409,1.88133zM342.74424,162.81126c0.29965,-0.34154 0.51601,-0.72464 0.64909,-1.14921c0.13308,-0.42457 0.18545,-0.85051 0.15712,-1.27783c-0.02833,-0.4274 -0.13909,-0.84261 -0.33313,-1.24563c-0.19404,-0.40302 -0.46192,-0.75427 -0.80363,-1.05365c-0.34858,-0.30566 -0.73409,-0.52683 -1.15565,-0.66343c-0.42156,-0.13651 -0.84742,-0.19232 -1.27843,-0.16734c-0.43101,0.02498 -0.84656,0.13282 -1.2458,0.32343c-0.4001,0.19061 -0.74954,0.45677 -1.04919,0.79831c-0.29965,0.34163 -0.51601,0.72473 -0.64909,1.1493c-0.13308,0.42457 -0.18545,0.85051 -0.15712,1.27783c0.02805,0.4274 0.13909,0.84261 0.33313,1.24563c0.1949,0.40302 0.46278,0.75418 0.80363,1.05365c0.34172,0.29947 0.7255,0.51901 1.1505,0.65871c0.425,0.13969 0.85086,0.1955 1.27843,0.16734c0.42757,-0.02808 0.84313,-0.13591 1.2458,-0.32343c0.40353,-0.18751 0.75555,-0.45204 1.05434,-0.79367zM199.21306,235.00009c0,-41.85611 33.93104,-75.78715 75.78715,-75.78715c41.85602,0 75.78724,33.93104 75.78724,75.78715c0,41.85628 -33.93121,75.78749 -75.78724,75.78749c-41.85611,0 -75.78715,-33.93121 -75.78715,-75.78749zM208.14147,169.37263l1.50492,-1.62465l-10.83034,-3.97546l-0.69451,0.74989l4.78171,10.50525l1.52416,-1.64548l-0.93053,-2.00359l2.56605,-2.77024zM351.63659,175.666c0.6654,-0.22936 1.30676,-0.60198 1.92409,-1.11785c0.61732,-0.51587 1.09555,-1.0794 1.43641,-1.6906c0.34,-0.6112 0.53919,-1.2434 0.59757,-1.8966c0.05838,-0.6532 -0.02891,-1.31105 -0.26187,-1.97353c-0.23296,-0.66248 -0.61045,-1.30597 -1.13247,-1.93047l-1.62959,-1.94977l-8.16942,6.82769l1.62959,1.94975c0.52202,0.6245 1.09212,1.10716 1.7103,1.44799c0.61732,0.34082 1.25525,0.53893 1.91207,0.59434c0.65682,0.0554 1.31793,-0.03158 1.98333,-0.26094zM201.42649,166.88719l2.88355,1.06497l-1.63028,1.76004zM353.61477,170.61753c-0.08929,0.81502 -0.56323,1.5806 -1.4201,2.29674c-0.85687,0.71615 -1.70085,1.0521 -2.53368,1.00785c-0.83283,-0.04425 -1.57979,-0.46213 -2.2409,-1.25365l-0.24641,-0.29409l5.33781,-4.46075l0.24555,0.2941c0.66197,0.79152 0.94788,1.59478 0.85772,2.4098zM359.86783,187.51296c-0.38636,0.2392 -0.82252,0.37554 -1.30762,0.4092c-0.48596,0.03366 -0.97277,-0.02395 -1.45959,-0.17292c-0.48768,-0.14888 -0.95732,-0.3898 -1.40808,-0.72267c-0.45076,-0.33287 -0.82853,-0.74474 -1.13247,-1.2355c-0.29965,-0.48278 -0.49626,-0.99819 -0.59071,-1.54631c-0.09444,-0.54812 -0.10217,-1.07752 -0.02318,-1.58838c0.07813,-0.51077 0.24126,-0.9761 0.48768,-1.39594c0.24641,-0.41983 0.56237,-0.74935 0.94873,-0.98856l6.1071,-3.78235l1.14363,1.84646l-6.1071,3.78239c-0.14424,0.08964 -0.26874,0.22212 -0.37177,0.39718c-0.10303,0.17515 -0.16914,0.37778 -0.19919,0.60788c-0.03005,0.2301 -0.01803,0.47875 0.03606,0.74577c0.05409,0.26711 0.16828,0.54142 0.34257,0.82304c0.17429,0.28162 0.37005,0.50811 0.58813,0.67948c0.21722,0.17146 0.43444,0.29295 0.65166,0.36455c0.21694,0.07161 0.42672,0.10028 0.62934,0.08603c0.20263,-0.01417 0.37606,-0.0662 0.52116,-0.15583l6.10624,-3.78239l1.14363,1.84645zM186.29456,179.93708l6.07061,10.96857l-1.13659,2.01552l-6.07053,-10.96852zM193.97974,183.50458c0.28857,0.1627 0.52623,0.3673 0.71314,0.61397c0.18683,0.24659 0.32188,0.51283 0.40517,0.79883c0.08317,0.28597 0.11096,0.57869 0.08337,0.87816c-0.02765,0.29947 -0.11814,0.5853 -0.27157,0.8573c-0.15343,0.27209 -0.35107,0.49738 -0.59302,0.67605c-0.24203,0.17859 -0.50682,0.30634 -0.79462,0.3831c-0.28771,0.07676 -0.58547,0.09899 -0.89318,0.06671c-0.3078,-0.03228 -0.6059,-0.12973 -0.89439,-0.29243c-0.28033,-0.15807 -0.51601,-0.36155 -0.70696,-0.61045c-0.19103,-0.24899 -0.32815,-0.51644 -0.41135,-0.80235c-0.0832,-0.28599 -0.11101,-0.57869 -0.08337,-0.87816c0.02765,-0.29956 0.11814,-0.5853 0.27157,-0.85738c0.15334,-0.272 0.35107,-0.49738 0.59302,-0.67596c0.24195,-0.17867 0.50682,-0.30634 0.79453,-0.3831c0.2878,-0.07684 0.58761,-0.09788 0.89945,-0.06328c0.31184,0.0346 0.60796,0.13093 0.8882,0.289zM193.18486,184.9142c-0.16485,-0.09298 -0.33639,-0.11634 -0.51455,-0.07015c-0.17818,0.04625 -0.31375,0.1518 -0.40671,0.31665c-0.09298,0.16485 -0.11428,0.33759 -0.06396,0.51807c0.0504,0.18047 0.15798,0.31725 0.32283,0.41015c0.16485,0.09298 0.33759,0.11428 0.51807,0.06396c0.18047,-0.05031 0.31725,-0.15789 0.41015,-0.32283c0.09298,-0.16485 0.11316,-0.33545 0.06053,-0.5118c-0.05272,-0.17644 -0.1615,-0.31106 -0.32635,-0.40405zM185.7886,185.37208c0.28848,0.1627 0.52743,0.36524 0.71657,0.60779c0.18923,0.24246 0.3254,0.50665 0.40869,0.79264c0.0832,0.28591 0.11101,0.57869 0.08337,0.87816c-0.02765,0.29947 -0.11817,0.58524 -0.27157,0.8573c-0.15343,0.272 -0.35228,0.49944 -0.59654,0.68223c-0.24427,0.18271 -0.50914,0.31046 -0.79453,0.3831c-0.28548,0.07264 -0.58203,0.09281 -0.88975,0.06053c-0.30772,-0.03228 -0.6059,-0.12973 -0.89439,-0.29243c-0.28033,-0.15807 -0.51592,-0.36155 -0.70696,-0.61054c-0.19103,-0.2489 -0.32927,-0.51429 -0.41487,-0.79608c-0.08551,-0.28187 -0.11333,-0.57456 -0.08337,-0.87824c0.02996,-0.3036 0.12166,-0.59139 0.27509,-0.86348c0.15334,-0.272 0.35107,-0.49738 0.59302,-0.67596c0.24195,-0.17867 0.50682,-0.30634 0.79453,-0.3831c0.2878,-0.07684 0.58641,-0.09582 0.89593,-0.0571c0.30961,0.03872 0.60444,0.13712 0.88477,0.29518zM185.00068,186.76934c-0.16485,-0.09298 -0.33639,-0.11634 -0.51455,-0.07015c-0.17813,0.04625 -0.3137,0.1518 -0.40671,0.31665c-0.0929,0.16485 -0.11308,0.33553 -0.06044,0.51189c0.05263,0.17635 0.16141,0.31098 0.32635,0.40396c0.16485,0.09298 0.33639,0.11634 0.51455,0.07015c0.17813,-0.04619 0.31367,-0.15174 0.40663,-0.31665c0.09298,-0.16485 0.11316,-0.33545 0.06053,-0.5118c-0.05272,-0.17644 -0.16141,-0.31106 -0.32635,-0.40405zM363.35883,201.34911c0.40611,0.22813 0.9101,0.41976 1.51111,0.57491l0.70576,-1.99887c-0.40611,-0.08397 -0.74353,-0.20512 -1.01141,-0.36335c-0.26788,-0.15832 -0.48853,-0.33176 -0.66197,-0.5203c-0.17258,-0.18854 -0.30909,-0.38233 -0.40954,-0.58135c-0.10017,-0.19902 -0.18574,-0.38121 -0.25672,-0.54657c-0.17429,-0.4092 -0.25672,-0.82656 -0.24813,-1.25216c0.00859,-0.42557 0.09359,-0.82959 0.255,-1.21206c0.16056,-0.3825 0.39066,-0.73005 0.68944,-1.04266c0.29879,-0.31261 0.65252,-0.55619 1.06207,-0.73074c0.40869,-0.17446 0.82939,-0.26135 1.26212,-0.26058c0.43273,0.00069 0.84227,0.07538 1.22949,0.22392c0.38808,0.14853 0.73838,0.36696 1.05091,0.65518c0.31338,0.28823 0.55722,0.6369 0.73237,1.04601c0.0704,0.16542 0.13852,0.36779 0.20434,0.6071c0.06611,0.23937 0.10389,0.496 0.11247,0.77006c0.00944,0.27397 -0.02061,0.55945 -0.09015,0.85635c-0.06869,0.2969 -0.20263,0.58555 -0.40182,0.86605l1.9404,0.82355c0.29278,-0.42328 0.4954,-0.85412 0.60616,-1.2926c0.11162,-0.43848 0.16141,-0.86365 0.15111,-1.27568c-0.01116,-0.41195 -0.06697,-0.8075 -0.16742,-1.18673c-0.0996,-0.37915 -0.21436,-0.72107 -0.34429,-1.02575c-0.2902,-0.67905 -0.69459,-1.26006 -1.21404,-1.7431c-0.5203,-0.48304 -1.1007,-0.85008 -1.74292,-1.10096c-0.64222,-0.25088 -1.32565,-0.37597 -2.05116,-0.37537c-0.72464,0.0006 -1.43126,0.1475 -2.11898,0.44088c-0.69631,0.29698 -1.29389,0.70601 -1.79186,1.22709c-0.49798,0.52107 -0.87833,1.1001 -1.14192,1.73717c-0.2633,0.63701 -0.40039,1.31028 -0.41126,2.01982c-0.01116,0.70953 0.12793,1.40387 0.41727,2.08284c0.13394,0.31338 0.28562,0.62679 0.45505,0.94023c0.17,0.31344 0.39066,0.60773 0.66197,0.88288c0.27217,0.27509 0.61045,0.52666 1.01656,0.75478zM185.51883,196.74788c-0.54975,-0.36344 -1.08963,-0.64703 -1.61963,-0.85086c-0.30033,-0.11539 -0.64754,-0.221 -1.04163,-0.31682c-0.39409,-0.09573 -0.8032,-0.15918 -1.22717,-0.19035c-0.42397,-0.03125 -0.85189,-0.02593 -1.28367,0.01597c-0.43178,0.04181 -0.83909,0.13875 -1.22202,0.29063c-0.38284,0.15188 -0.72525,0.37005 -1.02721,0.6545c-0.30196,0.28436 -0.5379,0.64746 -0.70764,1.08911c-0.16983,0.44166 -0.23791,0.86923 -0.20417,1.28272c0.03366,0.41341 0.14175,0.80475 0.3242,1.17403c0.18253,0.36928 0.42002,0.71408 0.71262,1.03442c0.29252,0.32034 0.60667,0.61088 0.94238,0.87172c0.33571,0.26092 0.68189,0.48776 1.03863,0.68068c0.35677,0.19295 0.68532,0.34715 0.98565,0.4626c0.53,0.20374 1.12079,0.35485 1.77246,0.45333c0.65158,0.09839 1.28796,0.10475 1.90897,0.01906c0.62101,-0.08569 1.18733,-0.28625 1.69888,-0.60161c0.51163,-0.31536 0.88795,-0.78655 1.12912,-1.41374c0.24109,-0.6272 0.27732,-1.22923 0.10878,-1.80603c-0.16863,-0.57685 -0.45476,-1.10511 -0.85841,-1.58477c-0.40365,-0.47966 -0.88036,-0.9012 -1.43014,-1.26461zM182.17903,197.46385c0.39074,0.10458 0.73186,0.21284 1.02335,0.32497c0.30033,0.11548 0.62754,0.26659 0.98153,0.45342c0.35408,0.18674 0.66935,0.40173 0.9459,0.64497c0.27664,0.24324 0.48458,0.51326 0.62393,0.81016c0.13926,0.2969 0.1427,0.61766 0.0103,0.96213c-0.13248,0.34455 -0.35073,0.58255 -0.65476,0.71408c-0.30405,0.13153 -0.64022,0.19493 -1.00849,0.19018c-0.36825,-0.00464 -0.74774,-0.05933 -1.13848,-0.1639c-0.39066,-0.10458 -0.74499,-0.21799 -1.06301,-0.34026c-0.29157,-0.11205 -0.61294,-0.25843 -0.96427,-0.43917c-0.35125,-0.18065 -0.66961,-0.39426 -0.95509,-0.64093c-0.28539,-0.24659 -0.49912,-0.52139 -0.64119,-0.82441c-0.14201,-0.30299 -0.14682,-0.62677 -0.01442,-0.97132c0.13591,-0.35331 0.36026,-0.59405 0.67313,-0.72215c0.31287,-0.12816 0.65702,-0.18597 1.03245,-0.17343c0.37537,0.01254 0.75839,0.07109 1.14913,0.17567zM374.92223,212.45867l-0.79247,-2.96203l-8.36518,2.23893l-0.55464,-2.07065l8.36518,-2.23901l-0.79247,-2.96203l1.91979,-0.51386l2.13959,7.99478zM179.46822,208.5285c0.55267,0.13025 1.12595,0.3382 1.71983,0.62393c0.5938,0.28574 1.1232,0.63896 1.58804,1.05958c0.46484,0.42062 0.81978,0.90529 1.06482,1.4541c0.24504,0.54872 0.29054,1.15007 0.13651,1.80414c-0.15412,0.65398 -0.46329,1.17188 -0.92753,1.55352c-0.46424,0.38164 -0.99819,0.6569 -1.60194,0.82579c-0.60367,0.16897 -1.23499,0.24873 -1.89395,0.23929c-0.65896,-0.00936 -1.26478,-0.07916 -1.81754,-0.20932c-0.31313,-0.07384 -0.65956,-0.18219 -1.03914,-0.32506c-0.37949,-0.14287 -0.75324,-0.32085 -1.12114,-0.53395c-0.3679,-0.21301 -0.71846,-0.45848 -1.05168,-0.73632c-0.33313,-0.27775 -0.61517,-0.58727 -0.84588,-0.92847c-0.23079,-0.3412 -0.39083,-0.71434 -0.48012,-1.11942c-0.08929,-0.40508 -0.07968,-0.83789 0.02876,-1.29852c0.10852,-0.46054 0.29312,-0.85223 0.55387,-1.1748c0.26075,-0.32266 0.57053,-0.58512 0.92933,-0.78741c0.3588,-0.20237 0.74929,-0.35339 1.17145,-0.45325c0.42217,-0.09994 0.84536,-0.16304 1.26967,-0.18949c0.42431,-0.02644 0.83823,-0.01889 1.24168,0.02267c0.40345,0.04156 0.76174,0.09925 1.07495,0.173zM179.03361,210.49715c-0.30402,-0.07161 -0.65664,-0.13282 -1.05786,-0.18357c-0.4013,-0.05083 -0.78869,-0.05701 -1.16235,-0.01863c-0.37366,0.03835 -0.70681,0.14218 -0.99948,0.31149c-0.29269,0.16923 -0.48244,0.43814 -0.56924,0.80655c-0.08466,0.35932 -0.03606,0.6794 0.14562,0.96041c0.18176,0.28101 0.43067,0.52442 0.74688,0.73014c0.31613,0.2058 0.66042,0.37443 1.03296,0.50588c0.37254,0.13153 0.71074,0.23311 1.01476,0.30471c0.33158,0.07813 0.69803,0.14252 1.09933,0.19335c0.4013,0.05074 0.78466,0.05358 1.15016,0.00841c0.36558,-0.04516 0.69004,-0.15343 0.97346,-0.32489c0.2835,-0.17146 0.4675,-0.43676 0.55215,-0.79599c0.08466,-0.35929 0.03786,-0.67659 -0.14038,-0.95191c-0.17816,-0.27535 -0.42079,-0.51481 -0.72765,-0.71838c-0.30694,-0.20357 -0.64849,-0.37391 -1.02446,-0.51111c-0.37606,-0.1372 -0.72069,-0.24272 -1.03391,-0.31647zM370.04118,224.8785c0.41985,0.12801 0.86803,0.15875 1.34626,0.09221c0.55293,-0.07693 0.99853,-0.24161 1.33596,-0.49403c0.33742,-0.25242 0.60959,-0.54589 0.81565,-0.88039c0.20692,-0.3345 0.3649,-0.69099 0.4748,-1.06937c0.1099,-0.37835 0.21207,-0.72696 0.30651,-1.04584c0.09387,-0.31888 0.19948,-0.58919 0.31682,-0.81093c0.11763,-0.22169 0.28848,-0.34824 0.51343,-0.37958c0.2902,-0.04044 0.55293,0.02576 0.78732,0.19859c0.23439,0.17283 0.37177,0.40929 0.41384,0.70919c0.03778,0.27183 -0.02404,0.51223 -0.18631,0.72104c-0.16199,0.20892 -0.36433,0.36848 -0.60702,0.47866l1.16767,1.80105c0.64136,-0.33759 1.12904,-0.79728 1.46388,-1.37897c0.33485,-0.5816 0.45076,-1.23799 0.34944,-1.96916c-0.06182,-0.44054 -0.20692,-0.83592 -0.43788,-1.18605c-0.2301,-0.35022 -0.51429,-0.64033 -0.85171,-0.87043c-0.33742,-0.2301 -0.71434,-0.39503 -1.12904,-0.49497c-0.41555,-0.09985 -0.83454,-0.12046 -1.25611,-0.06173c-0.54377,0.07567 -0.98193,0.23937 -1.31449,0.49111c-0.33313,0.25174 -0.60044,0.54454 -0.80192,0.87842c-0.20263,0.3339 -0.35803,0.68996 -0.46793,1.06834c-0.1099,0.37838 -0.21465,0.72731 -0.31338,1.04687c-0.09874,0.31948 -0.21121,0.59079 -0.33828,0.81385c-0.12621,0.22306 -0.30222,0.35022 -0.52717,0.38155c-0.15884,0.02215 -0.30995,0.00017 -0.45333,-0.06594c-0.14338,-0.06603 -0.26788,-0.15618 -0.37434,-0.27037c-0.10646,-0.11411 -0.19662,-0.24727 -0.27045,-0.3995c-0.07384,-0.15214 -0.1202,-0.29853 -0.13995,-0.43917c-0.05753,-0.41238 0.03606,-0.75504 0.2799,-1.02781c0.24384,-0.27286 0.54177,-0.48158 0.89464,-0.62616l-1.13419,-1.76276c-0.37949,0.15789 -0.72121,0.36069 -1.02601,0.60856c-0.3048,0.24787 -0.55722,0.52897 -0.75727,0.84347c-0.20005,0.3145 -0.34086,0.65896 -0.42242,1.03339c-0.08157,0.37443 -0.09273,0.77255 -0.03434,1.19438c0.06439,0.45934 0.20434,0.88408 0.42156,1.2744c0.21636,0.39023 0.49197,0.72215 0.82596,0.9957c0.33485,0.27363 0.71091,0.47437 1.1299,0.60238zM182.07789,222.4215l-0.2356,1.97345l-8.62662,-1.02996l-0.10767,0.9022l-1.94521,-0.23225l0.34326,-2.87557zM171.2806,248.86775l-0.2356,-1.97337l8.62653,-1.02996l-0.10767,-0.90211l1.94521,-0.23225l0.34326,2.87557zM375.94308,245.66343c0.47823,0.06654 0.90065,0.2186 1.26899,0.45617c0.36833,0.23757 0.67571,0.53361 0.92298,0.88803c0.24727,0.35442 0.42156,0.74894 0.52288,1.18356c0.10217,0.43461 0.12106,0.88159 0.05753,1.34094c-0.05838,0.42174 -0.17859,0.80166 -0.35889,1.1396c-0.18116,0.33794 -0.4104,0.63089 -0.68858,0.87876c-0.27818,0.24796 -0.59757,0.44955 -0.95904,0.60479c-0.36061,0.15523 -0.74496,0.257 -1.15308,0.30531l-0.60959,-2.00539c0.37864,-0.04284 0.72293,-0.16219 1.03202,-0.35803c0.30909,-0.19593 0.49197,-0.50004 0.54949,-0.9125c0.01975,-0.14055 0.0146,-0.29415 -0.0146,-0.46063c-0.02919,-0.16657 -0.07956,-0.31931 -0.15111,-0.45823c-0.07126,-0.13892 -0.16742,-0.25972 -0.28677,-0.36232c-0.11963,-0.10263 -0.25901,-0.16505 -0.41813,-0.18726c-0.22495,-0.03125 -0.42843,0.0431 -0.61131,0.22306c-0.18288,0.18004 -0.36576,0.41023 -0.54778,0.69064c-0.18202,0.28041 -0.37778,0.58761 -0.58641,0.9216c-0.20949,0.33399 -0.45677,0.63406 -0.74182,0.90005c-0.28591,0.26607 -0.62247,0.47471 -1.01141,0.62608c-0.38894,0.15128 -0.85515,0.18915 -1.39949,0.1135c-0.42156,-0.05873 -0.81823,-0.19284 -1.19086,-0.40225c-0.37177,-0.20949 -0.68944,-0.47093 -0.95131,-0.78457c-0.26187,-0.31355 -0.45591,-0.67021 -0.58212,-1.06988c-0.12621,-0.39976 -0.15798,-0.81995 -0.09702,-1.26049c0.10217,-0.73108 0.39323,-1.3308 0.87404,-1.79899c0.48081,-0.46819 1.0758,-0.7771 1.78414,-0.92693l0.63192,2.0515c-0.26359,0.03975 -0.50141,0.13797 -0.71434,0.29467c-0.21293,0.15669 -0.33828,0.37099 -0.37606,0.64282c-0.04178,0.29993 0.02633,0.56503 0.20434,0.79531c0.17801,0.23021 0.41241,0.36553 0.70318,0.40594c0.22495,0.03134 0.42414,-0.0437 0.59757,-0.22495c0.17343,-0.18133 0.34858,-0.41255 0.52631,-0.69356c0.17773,-0.28101 0.37091,-0.58856 0.57954,-0.92263c0.20949,-0.33399 0.45848,-0.63372 0.74868,-0.89911c0.2902,-0.26539 0.63192,-0.47334 1.02601,-0.62402c0.39323,-0.15068 0.86717,-0.18751 1.4201,-0.11059zM177.48489,261.7204c0.65896,-0.00944 1.26478,-0.07985 1.81754,-0.20949c0.31313,-0.07384 0.65956,-0.18202 1.03914,-0.3254c0.37949,-0.14252 0.75324,-0.32025 1.12114,-0.53404c0.3679,-0.21293 0.71846,-0.45848 1.05168,-0.73581c0.33313,-0.27818 0.61509,-0.58727 0.84588,-0.92864c0.23079,-0.3412 0.39083,-0.71434 0.48012,-1.11942c0.08929,-0.40508 0.07968,-0.83798 -0.02885,-1.29852c-0.10844,-0.46063 -0.29312,-0.85223 -0.55379,-1.1748c-0.26075,-0.32266 -0.57053,-0.58512 -0.92933,-0.78741c-0.3588,-0.20237 -0.74929,-0.35339 -1.17145,-0.45333c-0.42217,-0.09985 -0.84536,-0.16296 -1.26967,-0.1894c-0.4244,-0.02644 -0.83823,-0.01889 -1.24168,0.02267c-0.40345,0.04156 -0.76174,0.09925 -1.07495,0.173c-0.55267,0.13025 -1.12595,0.3382 -1.71983,0.62393c-0.5938,0.28574 -1.1232,0.63896 -1.58804,1.05958c-0.46484,0.42062 -0.81978,0.90529 -1.06482,1.45401c-0.24504,0.54881 -0.29054,1.15016 -0.13651,1.80423c0.15412,0.65441 0.46321,1.17214 0.92753,1.55335c0.46424,0.38207 0.99819,0.65682 1.60194,0.82596c0.60367,0.16914 1.23499,0.24899 1.89395,0.23954zM367.90331,258.83728l0.79333,-2.96203l-1.91979,-0.51386l-2.14045,7.99461l1.92065,0.51429l0.79247,-2.96211l8.36518,2.23833l0.55379,-2.07004zM179.84111,259.24682c-0.38173,0.13394 -0.72456,0.23697 -1.02858,0.30823c-0.31321,0.07384 -0.66869,0.13337 -1.06645,0.17859c-0.3977,0.04465 -0.77934,0.04465 -1.14484,0c-0.36558,-0.0455 -0.68953,-0.15111 -0.97183,-0.31853c-0.28239,-0.16657 -0.46595,-0.42955 -0.55052,-0.78878c-0.08466,-0.35932 -0.03838,-0.67888 0.13875,-0.95887c0.17713,-0.2799 0.41916,-0.52168 0.72602,-0.72525c0.30694,-0.20357 0.65132,-0.3722 1.03305,-0.50588c0.38173,-0.13368 0.73838,-0.23954 1.07005,-0.31768c0.30394,-0.07161 0.65195,-0.13171 1.04404,-0.1803c0.39203,-0.0486 0.77547,-0.05143 1.15016,-0.0085c0.37477,0.04302 0.70618,0.14965 0.99424,0.32008c0.28805,0.17034 0.47437,0.43513 0.55902,0.79436c0.0868,0.3685 0.037,0.69374 -0.14931,0.97587c-0.18631,0.28213 -0.43811,0.52376 -0.75538,0.7249c-0.31722,0.20108 -0.66669,0.36833 -1.04842,0.50176zM183.74019,274.16471c-0.53,0.20348 -1.12079,0.35459 -1.77246,0.45247c-0.65158,0.09874 -1.28788,0.10561 -1.90897,0.01975c-0.62101,-0.08586 -1.18725,-0.28677 -1.69888,-0.60187c-0.51163,-0.3151 -0.88795,-0.78646 -1.12904,-1.41409c-0.24118,-0.62677 -0.27741,-1.22863 -0.10887,-1.8056c0.16863,-0.57697 0.45476,-1.10528 0.85841,-1.58494c0.40371,-0.47995 0.88039,-0.90065 1.43014,-1.26469c0.54975,-0.36318 1.08963,-0.64651 1.61963,-0.85086c0.30033,-0.11505 0.64754,-0.22066 1.04163,-0.31682c0.39418,-0.0953 0.8032,-0.15884 1.22717,-0.19061c0.42397,-0.03091 0.85189,-0.02576 1.28367,0.01631c0.43178,0.04207 0.83918,0.13909 1.22202,0.29106c0.38284,0.15197 0.72525,0.37005 1.02721,0.65424c0.30199,0.28448 0.5379,0.64737 0.70773,1.08868c0.16974,0.44217 0.23783,0.86974 0.20417,1.28272c-0.03374,0.41384 -0.14184,0.80535 -0.32429,1.17454c-0.18253,0.36919 -0.42002,0.71434 -0.71262,1.03459c-0.29252,0.32025 -0.60667,0.61045 -0.9423,0.87146c-0.33571,0.26101 -0.68197,0.48768 -1.03871,0.68086c-0.35677,0.1929 -0.68532,0.34715 -0.98565,0.46278zM371.24148,270.79391c0.3048,0.54177 0.51515,1.03717 0.63106,1.48878c0.11677,0.45076 0.16914,0.86889 0.15884,1.25611c-0.0103,0.38636 -0.0704,0.74868 -0.17859,1.08868c-0.10904,0.33914 -0.2301,0.6654 -0.36404,0.97879c-0.28934,0.67914 -0.69459,1.2604 -1.21404,1.74292c-0.5203,0.48338 -1.1007,0.85086 -1.74292,1.10156c-0.64222,0.25071 -1.32308,0.37692 -2.04429,0.37778c-0.72035,0.00172 -1.42868,-0.14682 -2.12585,-0.44303c-0.68773,-0.29364 -1.28272,-0.70146 -1.78499,-1.22434c-0.50227,-0.52374 -0.8852,-1.10328 -1.14793,-1.74035c-0.26359,-0.63707 -0.40096,-1.3102 -0.41212,-2.02025c-0.01116,-0.70919 0.12793,-1.40378 0.41813,-2.08206c0.12965,-0.3048 0.29707,-0.62505 0.50141,-0.95904c0.20434,-0.33485 0.45161,-0.64909 0.74096,-0.94187c0.28934,-0.29364 0.63106,-0.55121 1.02515,-0.77444c0.39323,-0.22323 0.84399,-0.3752 1.35227,-0.45762l0.74868,1.97131c-0.34,0.0498 -0.64136,0.15283 -0.90323,0.30909c-0.26187,0.1554 -0.48853,0.33141 -0.68,0.52803c-0.19232,0.19576 -0.35116,0.4001 -0.47823,0.61389c-0.12707,0.21293 -0.22581,0.40268 -0.29621,0.56838c-0.17515,0.40869 -0.25758,0.82596 -0.24899,1.25181c0.00859,0.42586 0.09359,0.82939 0.255,1.21232c0.16056,0.38207 0.39066,0.7298 0.68944,1.04232c0.29879,0.31252 0.65252,0.55636 1.06207,0.73065c0.40869,0.17429 0.82939,0.26101 1.26212,0.26101c0.43273,-0.00086 0.84227,-0.07556 1.23035,-0.22409c0.38722,-0.14853 0.73752,-0.36747 1.05091,-0.6551c0.31338,-0.28848 0.55722,-0.63707 0.73151,-1.04661c0.0704,-0.16485 0.14252,-0.35288 0.21722,-0.56323c0.07384,-0.21035 0.11934,-0.44303 0.13566,-0.69803c0.01631,-0.25586 -0.01116,-0.5349 -0.08242,-0.83798c-0.07126,-0.30308 -0.21722,-0.6302 -0.43788,-0.98136zM182.99039,272.293c0.29149,-0.11247 0.61732,-0.26015 0.97741,-0.44389c0.36018,-0.1846 0.68378,-0.39752 0.97089,-0.63964c0.28711,-0.24212 0.5039,-0.51601 0.65038,-0.82081c0.14647,-0.3048 0.1518,-0.63363 0.01597,-0.98651c-0.13245,-0.34458 -0.35291,-0.58183 -0.66137,-0.71177c-0.30849,-0.12965 -0.65124,-0.19061 -1.02833,-0.18288c-0.37709,0.00859 -0.75658,0.06268 -1.13848,0.16399c-0.3819,0.10131 -0.71855,0.20778 -1.01012,0.32025c-0.31793,0.12192 -0.65707,0.27561 -1.01716,0.45934c-0.36018,0.18374 -0.67854,0.39752 -0.95509,0.64136c-0.27664,0.24298 -0.48373,0.51515 -0.62136,0.81651c-0.13763,0.30136 -0.14021,0.62419 -0.00781,0.96848c0.13248,0.34429 0.34987,0.5804 0.65227,0.70747c0.30231,0.12707 0.63758,0.18803 1.00592,0.18374c0.36825,-0.00515 0.74637,-0.05667 1.13436,-0.15455c0.38799,-0.09874 0.7322,-0.20606 1.03253,-0.32111zM190.11594,281.98469c0.3054,-0.03692 0.60238,-0.13651 0.89087,-0.29879c0.28033,-0.15798 0.51712,-0.35975 0.71048,-0.60444c0.19327,-0.2447 0.33158,-0.51 0.41478,-0.79591c0.0832,-0.28591 0.11101,-0.57869 0.08337,-0.87833c-0.02765,-0.29965 -0.11814,-0.58555 -0.27157,-0.85772c-0.15334,-0.27131 -0.35219,-0.49884 -0.59654,-0.68172c-0.24427,-0.18288 -0.50914,-0.31081 -0.79453,-0.38293c-0.28539,-0.07298 -0.58409,-0.09187 -0.89593,-0.05753c-0.31184,0.03434 -0.60796,0.13136 -0.8882,0.28934c-0.28857,0.16227 -0.52623,0.36747 -0.71314,0.61389c-0.18683,0.24641 -0.32308,0.51086 -0.4086,0.79247c-0.0856,0.28162 -0.11333,0.57439 -0.08337,0.87833c0.02996,0.30394 0.12158,0.59156 0.275,0.86373c0.15343,0.27131 0.35107,0.49712 0.59302,0.67571c0.24203,0.17859 0.50682,0.30651 0.79462,0.38293c0.28771,0.07727 0.58427,0.09702 0.88975,0.06096zM190.54524,279.88459c-0.05263,0.17601 -0.16141,0.31081 -0.32626,0.40353c-0.16493,0.09359 -0.33639,0.11677 -0.51463,0.0704c-0.17816,-0.04636 -0.31373,-0.15197 -0.40663,-0.31682c-0.09298,-0.16485 -0.11316,-0.33485 -0.06053,-0.51172c0.05272,-0.17601 0.1615,-0.31081 0.32635,-0.40353c0.16485,-0.09359 0.33639,-0.11677 0.51455,-0.0704c0.17816,0.04636 0.31373,0.15197 0.40671,0.31682c0.09298,0.16485 0.11308,0.33485 0.06044,0.51172zM364.17191,285.55382c-0.24641,-0.41985 -0.56323,-0.74954 -0.94959,-0.98823l-6.10624,-3.78292l-1.14363,1.84681l6.10624,3.78206c0.1451,0.09015 0.26874,0.22237 0.37177,0.39752c0.10303,0.17515 0.17086,0.37606 0.20348,0.60187c0.03263,0.22581 0.02061,0.4748 -0.03606,0.74611c-0.05667,0.27045 -0.17172,0.54692 -0.34601,0.82853c-0.17515,0.28162 -0.36919,0.50656 -0.5847,0.67399c-0.21465,0.16742 -0.43187,0.28848 -0.65166,0.36404c-0.21922,0.07556 -0.43015,0.10618 -0.63278,0.09187c-0.20263,-0.01374 -0.37692,-0.06611 -0.52116,-0.1554l-6.1071,-3.78206l-1.14363,1.84595l6.1071,3.78206c0.38636,0.23954 0.82166,0.37606 1.30762,0.40954c0.48596,0.03348 0.97449,-0.02833 1.46732,-0.1846c0.49197,-0.15712 0.96247,-0.4001 1.41151,-0.72894c0.44818,-0.32884 0.82252,-0.73495 1.12131,-1.21747c0.30394,-0.49111 0.50399,-1.01227 0.60187,-1.56434c0.09702,-0.55207 0.10303,-1.07924 0.01975,-1.58237c-0.08414,-0.50313 -0.24899,-0.96419 -0.4954,-1.38404zM182.86847,284.44968l12.52707,0.48167l-1.13651,-2.01595l-12.52716,-0.48167zM187.47142,289.95406c0.30772,-0.03263 0.60582,-0.1305 0.89439,-0.29278c0.28024,-0.15798 0.51592,-0.36146 0.70696,-0.61045c0.19101,-0.24899 0.32812,-0.51658 0.41135,-0.80278c0.0832,-0.28591 0.11093,-0.57869 0.08337,-0.87747c-0.02765,-0.29965 -0.11814,-0.58555 -0.27157,-0.85772c-0.15343,-0.27217 -0.35107,-0.49712 -0.59302,-0.67571c-0.24203,-0.17859 -0.50682,-0.30651 -0.79462,-0.38293c-0.28771,-0.07727 -0.58753,-0.09788 -0.89937,-0.06354c-0.31192,0.03434 -0.60796,0.1305 -0.88829,0.28848c-0.28848,0.16313 -0.52623,0.36747 -0.71305,0.61475c-0.18691,0.24641 -0.32197,0.51257 -0.40517,0.79848c-0.0832,0.28591 -0.11101,0.57869 -0.08337,0.87833c0.02765,0.29965 0.11814,0.5847 0.27157,0.85687c0.15334,0.27217 0.35107,0.49798 0.59302,0.67656c0.24195,0.17859 0.50682,0.30566 0.79453,0.38293c0.2878,0.07641 0.58555,0.09874 0.89327,0.06697zM187.89728,287.84795c-0.05272,0.17601 -0.1615,0.31081 -0.32635,0.40353c-0.16485,0.09273 -0.33639,0.11677 -0.51455,0.0704c-0.17818,-0.04636 -0.31375,-0.15197 -0.40671,-0.31682c-0.09298,-0.16485 -0.11428,-0.33742 -0.06396,-0.51773c0.0504,-0.18116 0.15798,-0.31768 0.32283,-0.4104c0.16485,-0.09273 0.33759,-0.11419 0.51807,-0.06439c0.18047,0.05066 0.31716,0.15798 0.41015,0.32283c0.09298,0.16485 0.11316,0.33571 0.06053,0.51257zM353.69118,295.56146c0.61732,0.51601 1.09813,1.08096 1.44156,1.69484c0.34429,0.61475 0.54692,1.24924 0.60874,1.90606c0.06268,0.65596 -0.01975,1.31878 -0.24555,1.98676c-0.22581,0.66884 -0.59929,1.31535 -1.12131,1.93954l-1.62959,1.94984l-8.16942,-6.82745l1.62959,-1.94984c0.52202,-0.62419 1.08868,-1.11015 1.69914,-1.45702c0.61045,-0.34687 1.24237,-0.54949 1.89575,-0.60788c0.65338,-0.05838 1.3102,0.02576 1.97217,0.25156c0.66197,0.22667 1.30161,0.59757 1.91893,1.11358zM352.32603,297.19535c-0.85687,-0.71606 -1.69456,-1.04604 -2.51307,-0.98995c-0.81737,0.05667 -1.55747,0.48081 -2.21858,1.27242l-0.24641,0.29364l5.33781,4.4612l0.24555,-0.29449c0.66197,-0.79161 0.94015,-1.60126 0.83626,-2.42807c-0.10475,-0.82682 -0.5847,-1.59868 -1.44156,-2.31474zM201.66887,309.64137l-1.50484,-1.62444l0.92083,-2.01424l-2.56605,-2.76979l-2.06884,0.77444l-1.52416,-1.64505l10.83987,-3.96494l0.69459,0.74954zM201.87313,304.30528l1.28212,-2.79383l-2.91249,1.03373zM345.57328,307.84264c-0.21894,-0.68858 -0.57869,-1.31707 -1.07752,-1.88631c-0.49283,-0.56237 -1.06808,-0.99939 -1.72489,-1.31106c-0.65682,-0.31081 -1.33596,-0.48682 -2.03742,-0.52631c-0.70146,-0.03949 -1.39863,0.05237 -2.09065,0.27475c-0.69202,0.22323 -1.31878,0.58126 -1.88116,1.07409c-0.56924,0.49884 -1.00798,1.07495 -1.31621,1.72919c-0.30737,0.65338 -0.48768,1.3308 -0.54091,2.03141c-0.05266,0.7006 0.03234,1.39692 0.255,2.08893c0.22323,0.69202 0.5804,1.31878 1.07323,1.88116c0.49884,0.56924 1.0758,1.00798 1.72919,1.31621c0.65424,0.30823 1.33338,0.48338 2.03742,0.52631c0.7049,0.04293 1.40035,-0.04722 2.0855,-0.27045c0.68515,-0.22323 1.31277,-0.58384 1.88201,-1.08353c0.56237,-0.49283 1.00025,-1.0655 1.31535,-1.71888c0.31424,-0.65338 0.49626,-1.33166 0.54606,-2.03656c0.0498,-0.70404 -0.0352,-1.40035 -0.255,-2.08893zM213.47895,316.97367c0.44781,-0.19146 0.81495,-0.46278 1.1014,-0.81565l4.52953,-5.57478l-1.68571,-1.36944l-4.52953,5.57478c-0.10742,0.13222 -0.25454,0.23783 -0.44139,0.31853c-0.18684,0.07985 -0.39441,0.12106 -0.62288,0.12449c-0.22838,0.00343 -0.47334,-0.04035 -0.73503,-0.1305c-0.2617,-0.09101 -0.52107,-0.2404 -0.77813,-0.4499c-0.25706,-0.20864 -0.45496,-0.43015 -0.59354,-0.66454c-0.13866,-0.23525 -0.23156,-0.46535 -0.27861,-0.69288c-0.04705,-0.22752 -0.05057,-0.44045 -0.01065,-0.63964c0.03992,-0.19919 0.11359,-0.3649 0.221,-0.49712l4.52956,-5.57478l-1.68571,-1.3703l-4.52951,5.57564c-0.28651,0.35202 -0.47729,0.76757 -0.57259,1.24495c-0.09522,0.47737 -0.09642,0.9702 -0.00343,1.47848c0.09298,0.50828 0.27397,1.00626 0.54297,1.49308c0.26908,0.48682 0.62393,0.90924 1.06464,1.26727c0.44807,0.36404 0.93972,0.62934 1.47496,0.79591c0.53524,0.16657 1.0576,0.2404 1.56691,0.22151c0.50933,-0.01946 0.98791,-0.12449 1.43573,-0.3151zM341.84015,306.56593c0.40353,0.18803 0.75469,0.45247 1.05434,0.79419c0.29965,0.34086 0.51515,0.72464 0.64823,1.14878c0.13308,0.425 0.18545,0.85086 0.15798,1.27757c-0.02833,0.42757 -0.13995,0.84313 -0.33399,1.2458c-0.19404,0.40353 -0.46192,0.75469 -0.80363,1.05348c-0.34172,0.29965 -0.72464,0.51944 -1.14964,0.65939c-0.425,0.13909 -0.85086,0.1949 -1.27843,0.16742c-0.42757,-0.02833 -0.84313,-0.13651 -1.24666,-0.32369c-0.40353,-0.18803 -0.75469,-0.45247 -1.05434,-0.79419c-0.29965,-0.34086 -0.51687,-0.72293 -0.65338,-1.14449c-0.13737,-0.42071 -0.18975,-0.84742 -0.15798,-1.27757c0.03205,-0.43044 0.14338,-0.8457 0.33399,-1.2458c0.19061,-0.39924 0.4602,-0.75212 0.80879,-1.05777c0.34172,-0.29965 0.72464,-0.51944 1.14964,-0.65939c0.425,-0.13909 0.85171,-0.1949 1.27843,-0.16742c0.42757,0.02833 0.84313,0.13651 1.24666,0.32369zM335.22649,320.57371l-1.93954,1.26212l-3.83958,-2.41348l-1.19,0.77444l2.2452,3.45065l-1.74893,1.13848l-5.80746,-8.92412l3.35534,-2.18338c0.34172,-0.22237 0.71262,-0.36232 1.1153,-0.42071c0.40268,-0.05838 0.79762,-0.03692 1.18656,0.06611c0.38808,0.10303 0.75899,0.27646 1.11015,0.52202c0.35202,0.24555 0.65166,0.55894 0.89894,0.93929c0.30995,0.47566 0.49025,0.98308 0.54091,1.51969c0.05066,0.53747 -0.03263,1.05692 -0.24813,1.55919zM229.0158,319.26609l-2.62472,-1.5858l-4.47688,7.41301l-1.83487,-1.10843l4.47688,-7.41215l-2.62472,-1.5858l1.02748,-1.70085l7.08427,4.27832zM328.88757,315.90817c-0.07727,-0.11934 -0.17687,-0.22409 -0.29793,-0.31424c-0.12106,-0.09101 -0.24813,-0.16056 -0.38121,-0.20949c-0.13308,-0.04808 -0.26874,-0.0704 -0.40697,-0.06525c-0.13823,0.00515 -0.25843,0.04121 -0.36146,0.10818l-1.60641,1.0449l1.27757,1.96358l1.60641,-1.0449c0.10303,-0.06783 0.1846,-0.16313 0.24555,-0.28677c0.0601,-0.12449 0.09616,-0.255 0.10818,-0.39323c0.01202,-0.13737 0.00258,-0.27818 -0.02833,-0.42156c-0.03177,-0.14338 -0.08328,-0.27045 -0.1554,-0.38121zM320.43997,322.4729c-0.03091,-0.42586 -0.14424,-0.84399 -0.34,-1.25353c-0.19662,-0.4104 -0.45076,-0.7607 -0.76328,-1.05176c-0.31252,-0.29106 -0.65682,-0.51172 -1.03288,-0.66197c-0.37606,-0.15054 -0.76643,-0.22609 -1.17111,-0.22667c-0.40353,-0.00086 -0.7899,0.08672 -1.15651,0.26273l-3.62408,1.7352l4.59771,9.6024l1.88201,-0.90065l-1.77727,-3.71337l1.74121,-0.83368c0.36662,-0.17515 0.67914,-0.41641 0.93586,-0.72379c0.25758,-0.30651 0.44732,-0.64909 0.5701,-1.02772c0.12364,-0.37949 0.16914,-0.78131 0.13823,-1.20717zM235.14529,331.70954l1.95534,0.84313l4.21599,-9.77669l-1.95525,-0.84313l-1.75391,4.06711l-3.03724,-1.3102l1.75383,-4.06711l-1.95525,-0.84313l-4.21607,9.77669l1.95534,0.84313l1.74825,-4.05337l3.03724,1.30934zM317.98871,321.77315c0.10389,0.10818 0.1846,0.22151 0.24212,0.34086c0.05667,0.11934 0.09273,0.24899 0.10732,0.38894c0.0146,0.13995 0.01116,0.27561 -0.0103,0.40611c-0.02146,0.13136 -0.06611,0.25242 -0.13308,0.36318c-0.06783,0.11076 -0.15712,0.19318 -0.26788,0.24641l-1.77984,0.85171l-1.0054,-2.10009l1.77984,-0.85171c0.11104,-0.05323 0.22981,-0.06811 0.35631,-0.04465c0.12707,0.02318 0.25071,0.06869 0.37263,0.13651c0.12106,0.06783 0.23439,0.1554 0.33828,0.26273zM249.62899,336.53478l-5.78196,-1.62101l2.87368,-10.25149l5.78196,1.62101l-0.53258,1.90004l-3.73157,-1.04661l-0.66291,2.3654l3.29421,0.92298l-0.48278,1.72232l-3.29421,-0.92298l-0.66291,2.36454l3.73166,1.04575zM302.47557,333.93842c-0.26024,0.56409 -0.53893,1.02515 -0.836,1.38404c-0.29716,0.35803 -0.6053,0.64651 -0.92461,0.86459c-0.31931,0.21808 -0.64832,0.38207 -0.98711,0.49369c-0.33871,0.11076 -0.67425,0.20348 -1.00652,0.27904c-0.71984,0.16313 -1.42782,0.17601 -2.12388,0.03778c-0.69614,-0.13823 -1.33398,-0.39323 -1.91352,-0.76671c-0.57963,-0.37263 -1.08121,-0.85086 -1.50467,-1.43383c-0.42354,-0.58384 -0.71906,-1.24409 -0.88666,-1.98247c-0.16545,-0.72894 -0.18357,-1.45101 -0.05435,-2.16449c0.12922,-0.71348 0.37469,-1.36343 0.73649,-1.94984c0.36172,-0.58727 0.82682,-1.09298 1.39511,-1.51798c0.5683,-0.425 1.21241,-0.71863 1.93224,-0.88262c0.32308,-0.07298 0.68008,-0.12449 1.071,-0.1554c0.391,-0.03005 0.79015,-0.0146 1.19738,0.04894c0.40731,0.06268 0.81668,0.18803 1.22812,0.37606c0.41152,0.18803 0.79917,0.46364 1.16321,0.82767l-1.15771,1.76181c-0.24023,-0.24641 -0.5003,-0.42929 -0.78002,-0.55035c-0.27973,-0.12106 -0.55525,-0.20177 -0.82639,-0.24212c-0.27123,-0.04035 -0.53043,-0.0498 -0.7777,-0.02747c-0.24736,0.02232 -0.45866,0.05323 -0.63398,0.09359c-0.43376,0.09788 -0.82046,0.27561 -1.16012,0.53232c-0.33966,0.25672 -0.61724,0.56237 -0.83274,0.91697c-0.2155,0.35459 -0.36241,0.74439 -0.44054,1.16939c-0.07813,0.42586 -0.068,0.85515 0.03048,1.28873c0.09839,0.43358 0.27466,0.82596 0.5288,1.1754c0.25405,0.3503 0.5549,0.63879 0.90237,0.86545c0.34747,0.22667 0.72971,0.38293 1.1469,0.46793c0.4171,0.08414 0.84261,0.07727 1.27637,-0.02061c0.17532,-0.04035 0.36988,-0.09101 0.58366,-0.15455c0.2137,-0.06268 0.42886,-0.16313 0.64531,-0.29965c0.21653,-0.13566 0.42663,-0.32197 0.63037,-0.55722c0.20374,-0.23611 0.38327,-0.54606 0.53859,-0.9307zM262.55428,338.85639l1.50364,0.21465l1.50647,-10.53997l-2.26254,-0.32283l-0.86365,6.04271l-3.28193,-6.63513l-1.46157,-0.20949l-1.50647,10.53997l2.26254,0.32369l0.8457,-5.9165zM284.77278,339.19038l2.11813,-0.21894l-1.09323,-10.59063l-2.11813,0.21894zM278.67272,330.91707l-3.06626,-0.0146l-0.04173,8.65881l-2.14354,-0.0103l0.04173,-8.65881l-3.06626,-0.01545l0.00953,-1.98676l8.27614,0.03949z"
                      data-paper-data="{&quot;isBaseLogoContainer&quot;:true}" id="element-id-54384"></path>
                  </g>
                </g>
              </g>

            </svg>